<?xml version="1.0" encoding="UTF-8" standalone="no"?>
<!DOCTYPE svg PUBLIC "-//W3C//DTD SVG 1.1//EN" "http://www.w3.org/Graphics/SVG/1.1/DTD/svg11.dtd">
<svg width="100%" height="100%" viewBox="0 0 1080 1080" version="1.1" xmlns="http://www.w3.org/2000/svg" xmlns:xlink="http://www.w3.org/1999/xlink" xml:space="preserve" xmlns:serif="http://www.serif.com/" style="fill-rule:evenodd;clip-rule:evenodd;stroke-linejoin:round;stroke-miterlimit:2;">
    <g transform="matrix(28.3918,7.60755,-7.60755,28.3918,-970.966,-11032)">
        <path d="M140.507,370.193L135.923,353.121L139.742,353.121L141.722,361.515C141.884,362.221 142.032,362.974 142.166,363.773C142.3,364.573 142.431,365.375 142.559,366.179C142.687,366.983 142.813,367.757 142.937,368.498L142.321,368.498C142.46,367.757 142.597,366.983 142.732,366.179C142.866,365.375 143.007,364.573 143.155,363.773C143.303,362.974 143.462,362.221 143.632,361.515L145.719,353.121L149.357,353.121L151.433,361.515C151.607,362.221 151.766,362.974 151.912,363.773C152.058,364.573 152.2,365.375 152.338,366.179C152.477,366.983 152.615,367.757 152.755,368.498L152.116,368.498C152.248,367.757 152.376,366.983 152.503,366.179C152.629,365.375 152.762,364.573 152.901,363.773C153.041,362.974 153.188,362.221 153.342,361.515L155.323,353.121L159.153,353.121L154.558,370.193L150.566,370.193L148.301,361.462C148.056,360.491 147.847,359.44 147.673,358.308C147.5,357.176 147.308,356.014 147.099,354.822L147.966,354.822C147.732,355.986 147.54,357.127 147.389,358.244C147.239,359.361 147.033,360.434 146.77,361.462L144.504,370.193L140.507,370.193Z" style="fill:rgb(220,38,38);fill-rule:nonzero;"/>
    </g>
    <g transform="matrix(25.7763,0,0,25.7763,-2934.85,-8524.11)">
        <path d="M137.123,370.193L137.123,350.726L150.158,350.726L150.158,354.035L141.116,354.035L141.116,358.734L149.469,358.734L149.469,361.988L141.116,361.988L141.116,366.884L150.184,366.884L150.184,370.193L137.123,370.193Z" style="fill:rgb(220,38,38);fill-rule:nonzero;"/>
    </g>
    <g transform="matrix(29.6533,0,0,29.6533,-3857.34,-9959.36)">
        <path d="M142.843,370.193L138.46,370.193L138.46,367.206L142.682,367.206C143.77,367.206 144.682,367.014 145.42,366.628C146.157,366.243 146.712,365.645 147.085,364.835C147.458,364.024 147.645,362.987 147.645,361.723C147.645,360.461 147.457,359.428 147.082,358.623C146.706,357.817 146.153,357.222 145.421,356.836C144.69,356.451 143.784,356.258 142.703,356.258L138.381,356.258L138.381,353.271L142.905,353.271C144.605,353.271 146.065,353.609 147.286,354.285C148.507,354.961 149.447,355.93 150.107,357.193C150.766,358.455 151.096,359.965 151.096,361.723C151.096,363.483 150.766,364.996 150.107,366.262C149.448,367.528 148.502,368.5 147.27,369.177C146.037,369.855 144.562,370.193 142.843,370.193ZM140.364,353.271L140.364,370.193L136.893,370.193L136.893,353.271L140.364,353.271Z" style="fill:rgb(185,28,28);fill-rule:nonzero;"/>
    </g>
</svg>
