<?xml version="1.0" encoding="UTF-8" standalone="no"?>
<!DOCTYPE svg PUBLIC "-//W3C//DTD SVG 1.1//EN" "http://www.w3.org/Graphics/SVG/1.1/DTD/svg11.dtd">
<svg width="100%" height="100%" viewBox="0 0 1080 1080" version="1.1" xmlns="http://www.w3.org/2000/svg" xmlns:xlink="http://www.w3.org/1999/xlink" xml:space="preserve" xmlns:serif="http://www.serif.com/" style="fill-rule:evenodd;clip-rule:evenodd;stroke-linejoin:round;stroke-miterlimit:2;">
    <g transform="matrix(1.1134,0,0,1.1134,-211.546,-230.474)">
        <circle cx="675" cy="692" r="485"/>
    </g>
    <g transform="matrix(1.55783,0,0,1.55783,-194.039,-144.738)">
        <path d="M331.808,645.703L331.808,233.39L487.339,233.39C514.714,233.39 535.62,234.703 550.058,237.328C570.308,240.703 587.276,247.124 600.964,256.593C614.651,266.062 625.667,279.328 634.011,296.39C642.355,313.453 646.526,332.203 646.526,352.64C646.526,387.703 635.37,417.374 613.058,441.656C590.745,465.937 550.433,478.078 492.12,478.078L386.37,478.078L386.37,645.703L331.808,645.703ZM386.37,429.421L492.964,429.421C528.214,429.421 553.245,422.859 568.058,409.734C582.87,396.609 590.276,378.14 590.276,354.328C590.276,337.078 585.917,322.312 577.198,310.031C568.48,297.749 556.995,289.64 542.745,285.703C533.558,283.265 516.589,282.046 491.839,282.046L386.37,282.046L386.37,429.421Z" style="fill:url(#_Linear1);fill-rule:nonzero;"/>
    </g>
    <defs>
        <linearGradient id="_Linear1" x1="0" y1="0" x2="1" y2="0" gradientUnits="userSpaceOnUse" gradientTransform="matrix(-22.4672,1005.89,-1005.89,-22.4672,396.089,248.896)"><stop offset="0" style="stop-color:white;stop-opacity:1"/><stop offset="1" style="stop-color:black;stop-opacity:1"/></linearGradient>
    </defs>
</svg>
