<?xml version="1.0" encoding="UTF-8" standalone="no"?>
<!DOCTYPE svg PUBLIC "-//W3C//DTD SVG 1.1//EN" "http://www.w3.org/Graphics/SVG/1.1/DTD/svg11.dtd">
<svg width="100%" height="100%" viewBox="0 0 1080 1080" version="1.1" xmlns="http://www.w3.org/2000/svg" xmlns:xlink="http://www.w3.org/1999/xlink" xml:space="preserve" xmlns:serif="http://www.serif.com/" style="fill-rule:evenodd;clip-rule:evenodd;stroke-linejoin:round;stroke-miterlimit:2;">
    <g transform="matrix(1.58984,0,0,1.58984,-594.27,-2.06978)">
        <path d="M640.009,236.99L381.673,236.99L398.665,257.438L479.017,257.438C485.065,266.942 488.233,278.462 488.233,291.998C488.233,314.75 474.121,327.71 451.945,327.71C449.929,327.71 448.777,327.71 447.913,327.422C440.137,318.206 432.361,313.598 425.161,313.598C418.825,313.598 415.657,316.478 415.657,322.526C415.657,332.606 441.865,373.214 494.281,443.774L511.561,431.678C479.881,397.406 450.793,362.558 445.033,351.326C448.777,351.902 452.233,352.19 455.977,352.19C469.801,352.19 481.609,348.734 491.401,341.534C509.545,351.902 526.825,357.086 543.241,357.086C557.641,357.086 568.873,354.206 576.649,348.158L576.649,430.814L599.113,444.926L599.113,257.438L657.001,257.438L640.009,236.99ZM576.649,318.782C566.857,331.166 544.105,339.23 524.233,339.23C515.593,339.23 506.953,337.79 498.601,334.91C505.801,327.134 509.257,317.63 509.257,306.398C509.257,288.83 503.497,272.414 492.265,257.438L576.649,257.438L576.649,318.782Z" style="fill:white;fill-rule:nonzero;"/>
        <path d="M794.089,236.99L620.425,236.99L637.417,257.438L718.057,257.438C724.969,266.942 728.425,278.174 728.425,291.71C728.425,314.75 714.889,327.71 691.849,327.71C689.833,327.71 688.393,327.71 686.953,327.422C674.857,318.782 667.081,314.462 663.625,314.462C656.425,314.462 652.969,317.63 652.969,323.966C652.969,331.742 666.217,351.614 696.169,382.43L753.193,441.47L771.049,429.95C761.257,422.174 750.025,413.534 738.505,402.59L686.089,351.902C689.833,352.478 693.289,352.766 697.033,352.766C722.377,352.766 748.009,336.638 748.009,309.566C748.009,287.39 741.961,268.958 731.305,257.438L810.793,257.438L794.089,236.99Z" style="fill:white;fill-rule:nonzero;"/>
        <path d="M1028.52,236.99L774.217,236.99L791.209,257.438L943.273,257.438L943.273,303.518C928.009,306.11 916.201,313.886 907.561,326.846C895.177,312.734 874.441,302.366 857.737,302.366C828.649,302.366 807.913,321.086 807.913,349.31C807.913,382.142 832.969,416.702 872.713,440.03L885.097,431.102C848.809,412.094 827.209,385.598 827.209,359.102C827.209,336.062 843.625,319.646 866.665,319.646C879.337,319.646 895.177,326.558 901.801,336.926C896.617,343.55 892.297,353.054 889.129,365.15L909.001,381.566C920.521,338.366 937.225,319.934 963.145,319.934C978.409,319.934 989.641,331.166 989.641,346.43C989.641,374.078 970.921,406.622 945.289,426.206L963.433,441.47C987.913,424.19 1005.48,391.646 1005.48,363.71C1005.48,333.182 990.217,308.702 965.737,302.654L965.737,257.438L1045.22,257.438L1028.52,236.99Z" style="fill:white;fill-rule:nonzero;"/>
    </g>
</svg>
